<svg width="268" height="89" viewBox="0 0 268 89" fill="none" xmlns="http://www.w3.org/2000/svg">
<path d="M51.824 39.5738C50.88 39.3378 49.8967 39.1215 48.874 38.9248C47.9694 38.7281 46.927 38.5708 45.747 38.4528C44.6064 38.2955 43.4067 38.2168 42.148 38.2168C39.2374 38.2168 37.1527 38.6691 35.894 39.5738C34.6354 40.4391 34.006 41.7961 34.006 43.6448C34.0454 45.1001 34.5764 46.3391 35.599 47.3618C36.6217 48.3451 37.9 49.2695 39.434 50.1348C40.968 50.9608 42.6397 51.7868 44.449 52.6128C46.2977 53.3995 47.989 54.3238 49.523 55.3858C51.057 56.4085 52.3354 57.6278 53.358 59.0438C54.42 60.4205 54.951 62.1118 54.951 64.1178C54.951 66.4385 54.4397 68.3068 53.417 69.7228C52.4337 71.1388 51.175 72.2401 49.641 73.0268C48.107 73.8135 46.4157 74.3445 44.567 74.6198C42.7577 74.8951 41.027 75.0328 39.375 75.0328C37.8017 75.0328 36.366 74.9345 35.068 74.7378C33.77 74.5411 32.649 74.3248 31.705 74.0888C30.6037 73.8135 29.6007 73.4988 28.696 73.1448L29.876 68.3658C30.7807 68.7591 31.7444 69.0935 32.767 69.3688C33.6717 69.6048 34.6747 69.8211 35.776 70.0178C36.9167 70.2145 38.1164 70.3128 39.375 70.3128C40.909 70.3128 42.3054 70.2145 43.564 70.0178C44.862 69.8211 45.983 69.5065 46.927 69.0738C47.871 68.6411 48.5987 68.0708 49.11 67.3628C49.6607 66.6548 49.936 65.7895 49.936 64.7668C49.8967 63.2328 49.3854 61.9938 48.402 61.0498C47.458 60.0665 46.1797 59.1421 44.567 58.2768C42.9937 57.3721 41.2827 56.5068 39.434 55.6808C37.6247 54.8548 35.953 53.9108 34.419 52.8488C32.885 51.7868 31.587 50.5281 30.525 49.0728C29.5024 47.6175 28.991 45.8081 28.991 43.6448C28.991 42.3861 29.2074 41.1471 29.64 39.9278C30.0727 38.7085 30.8004 37.6268 31.823 36.6828C32.885 35.7388 34.242 34.9718 35.894 34.3818C37.5854 33.7918 39.67 33.4968 42.148 33.4968C43.564 33.4968 44.9014 33.5755 46.16 33.7328C47.458 33.8508 48.579 33.9885 49.523 34.1458C50.6244 34.3425 51.6667 34.5588 52.65 34.7948L51.824 39.5738ZM67.3835 35.7388V44.5888H75.9385V48.4238H67.3835V64.1768C67.3835 65.4748 67.4031 66.5565 67.4425 67.4218C67.5211 68.2871 67.6588 68.9755 67.8555 69.4868C68.0521 69.9981 68.3275 70.3718 68.6815 70.6078C69.0355 70.8045 69.4878 70.9028 70.0385 70.9028C71.5331 70.8635 73.2638 70.3128 75.2305 69.2508L76.6465 72.8498C75.3485 73.7151 74.1291 74.2855 72.9885 74.5608C71.8871 74.8755 70.7858 75.0328 69.6845 75.0328C67.0885 75.0328 65.2595 74.3051 64.1975 72.8498C63.1748 71.3551 62.6635 68.8968 62.6635 65.4748V48.4238H57.2355V44.5888H62.6635V36.3288L67.3835 35.7388ZM82.0307 49.3678C82.0307 48.4631 81.9323 47.0471 81.7357 45.1198L86.1017 44.5298L86.5737 48.8368H86.6327C87.3407 47.9321 88.029 47.1455 88.6977 46.4768C89.3663 45.8081 90.0547 45.2378 90.7627 44.7658C91.51 44.2545 92.218 43.9988 92.8867 43.9988C93.7913 43.9595 95.05 44.0578 96.6627 44.2938L95.6007 48.8368C94.3027 48.6008 93.398 48.5025 92.8867 48.5418C92.218 48.5418 91.51 48.8565 90.7627 49.4858C90.0153 50.1151 89.3663 50.7838 88.8157 51.4918C88.1077 52.3571 87.4193 53.3405 86.7507 54.4418V74.2658H82.0307V49.3678ZM104.348 59.5748C104.348 63.3901 105.194 66.2418 106.885 68.1298C108.616 69.9785 110.937 70.9028 113.847 70.9028C116.719 70.9028 118.961 69.9785 120.573 68.1298C122.186 66.2811 122.992 63.5081 122.992 59.8108C122.992 55.8775 122.127 52.9471 120.396 51.0198C118.705 49.0925 116.384 48.1288 113.434 48.1288C110.484 48.1288 108.223 49.0925 106.649 51.0198C105.115 52.9078 104.348 55.7595 104.348 59.5748ZM99.3333 59.5158C99.3333 56.5265 99.8053 54.0485 100.749 52.0818C101.693 50.0758 102.893 48.4828 104.348 47.3028C105.804 46.0835 107.357 45.2378 109.009 44.7658C110.701 44.2545 112.294 43.9988 113.788 43.9988C115.204 43.9988 116.738 44.2348 118.39 44.7068C120.082 45.1395 121.635 45.9458 123.051 47.1258C124.467 48.2665 125.647 49.8201 126.591 51.7868C127.535 53.7141 128.007 56.1725 128.007 59.1618C128.007 62.2691 127.516 64.8455 126.532 66.8908C125.588 68.9361 124.389 70.5685 122.933 71.7878C121.478 72.9678 119.905 73.7938 118.213 74.2658C116.522 74.7771 114.949 75.0328 113.493 75.0328C111.999 75.0328 110.425 74.7968 108.773 74.3248C107.121 73.8528 105.587 73.0465 104.171 71.9058C102.795 70.7258 101.634 69.1328 100.69 67.1268C99.7857 65.1208 99.3333 62.5838 99.3333 59.5158ZM134.923 50.4888C134.963 49.6628 134.864 47.8731 134.628 45.1198L138.994 44.5298L139.643 48.3058C140.823 47.5191 141.984 46.8308 143.124 46.2408C144.304 45.6508 145.504 45.1395 146.723 44.7068C147.943 44.2348 149.123 43.9988 150.263 43.9988C151.876 43.9988 153.213 44.1955 154.275 44.5888C155.377 44.9428 156.262 45.5525 156.93 46.4178C157.599 47.2831 158.071 48.4238 158.346 49.8398C158.661 51.2558 158.818 53.0258 158.818 55.1498V74.2658H154.098V55.6808C154.098 54.5008 154.079 53.4585 154.039 52.5538C154 51.6098 153.823 50.8231 153.508 50.1938C153.233 49.5251 152.781 49.0138 152.151 48.6598C151.561 48.3058 150.716 48.1288 149.614 48.1288C148.592 48.1288 147.51 48.3648 146.369 48.8368C145.229 49.2695 144.108 49.7808 143.006 50.3708C141.905 50.9608 140.784 51.6491 139.643 52.4358V74.2658H134.923V50.4888ZM190.376 77.0978C190.376 78.5531 190.219 79.9691 189.904 81.3458C189.589 82.7225 188.98 83.9418 188.075 85.0038C187.21 86.1051 185.971 86.9705 184.358 87.5998C182.785 88.2685 180.7 88.6028 178.104 88.6028C176.452 88.5635 175.016 88.4651 173.797 88.3078C172.578 88.1505 171.417 87.9145 170.316 87.5998C169.215 87.3245 168.212 86.9901 167.307 86.5968L168.546 82.4668C170.08 83.1355 171.634 83.6468 173.207 84.0008C174.82 84.3548 176.255 84.5318 177.514 84.5318C178.891 84.5318 180.09 84.3941 181.113 84.1188C182.136 83.8435 182.981 83.3715 183.65 82.7028C184.358 82.0735 184.869 81.2278 185.184 80.1658C185.538 79.1038 185.715 77.7861 185.715 76.2128V71.9058C184.889 72.4565 184.024 72.9678 183.119 73.4398C182.254 73.8725 181.31 74.2461 180.287 74.5608C179.304 74.8755 178.34 75.0328 177.396 75.0328C173.738 75.0328 170.847 73.7545 168.723 71.1978C166.599 68.6018 165.537 64.7471 165.537 59.6338C165.537 56.6838 165.989 54.2255 166.894 52.2588C167.838 50.2528 169.018 48.6401 170.434 47.4208C171.85 46.2015 173.404 45.3361 175.095 44.8248C176.786 44.2741 178.399 43.9988 179.933 43.9988C181.939 43.9988 183.768 44.1758 185.42 44.5298C187.111 44.8445 188.763 45.1001 190.376 45.2968V77.0978ZM177.927 70.9028C178.792 70.9028 179.677 70.7455 180.582 70.4308C181.487 70.1161 182.352 69.7425 183.178 69.3098C184.043 68.8771 184.889 68.3658 185.715 67.7758V48.9548C185.243 48.8368 184.692 48.6991 184.063 48.5418C183.512 48.4631 182.883 48.3845 182.175 48.3058C181.467 48.1878 180.72 48.1288 179.933 48.1288C178.281 48.1288 176.865 48.4238 175.685 49.0138C174.505 49.6038 173.522 50.4101 172.735 51.4328C171.988 52.4555 171.437 53.6551 171.083 55.0318C170.729 56.4085 170.552 57.8638 170.552 59.3978C170.552 60.7745 170.69 62.1511 170.965 63.5278C171.28 64.9045 171.752 66.1435 172.381 67.2448C173.01 68.3461 173.777 69.2311 174.682 69.8998C175.587 70.5685 176.668 70.9028 177.927 70.9028Z" fill="#B6A0F2"/>
<path d="M40.5778 10.184C40.0658 10.056 39.5324 9.93867 38.9778 9.832C38.4871 9.72533 37.9218 9.64 37.2818 9.576C36.6631 9.49067 36.0124 9.448 35.3298 9.448C33.7511 9.448 32.6204 9.69333 31.9378 10.184C31.2551 10.6533 30.9138 11.3893 30.9138 12.392C30.9351 13.1813 31.2231 13.8533 31.7778 14.408C32.3324 14.9413 33.0258 15.4427 33.8578 15.912C34.6898 16.36 35.5964 16.808 36.5778 17.256C37.5804 17.6827 38.4978 18.184 39.3298 18.76C40.1618 19.3147 40.8551 19.976 41.4098 20.744C41.9858 21.4907 42.2738 22.408 42.2738 23.496C42.2738 24.7547 41.9964 25.768 41.4418 26.536C40.9084 27.304 40.2258 27.9013 39.3938 28.328C38.5618 28.7547 37.6444 29.0427 36.6418 29.192C35.6604 29.3413 34.7218 29.416 33.8258 29.416C32.9724 29.416 32.1938 29.3627 31.4898 29.256C30.7858 29.1493 30.1778 29.032 29.6658 28.904C29.0684 28.7547 28.5244 28.584 28.0338 28.392L28.6738 25.8C29.1644 26.0133 29.6871 26.1947 30.2418 26.344C30.7324 26.472 31.2764 26.5893 31.8738 26.696C32.4924 26.8027 33.1431 26.856 33.8258 26.856C34.6578 26.856 35.4151 26.8027 36.0978 26.696C36.8018 26.5893 37.4098 26.4187 37.9218 26.184C38.4338 25.9493 38.8284 25.64 39.1058 25.256C39.4044 24.872 39.5538 24.4027 39.5538 23.848C39.5324 23.016 39.2551 22.344 38.7218 21.832C38.2098 21.2987 37.5164 20.7973 36.6418 20.328C35.7884 19.8373 34.8604 19.368 33.8578 18.92C32.8764 18.472 31.9698 17.96 31.1378 17.384C30.3058 16.808 29.6018 16.1253 29.0258 15.336C28.4711 14.5467 28.1938 13.5653 28.1938 12.392C28.1938 11.7093 28.3111 11.0373 28.5458 10.376C28.7804 9.71467 29.1751 9.128 29.7298 8.616C30.3058 8.104 31.0418 7.688 31.9378 7.368C32.8551 7.048 33.9858 6.888 35.3298 6.888C36.0978 6.888 36.8231 6.93067 37.5058 7.016C38.2098 7.08 38.8178 7.15467 39.3298 7.24C39.9271 7.34667 40.4924 7.464 41.0258 7.592L40.5778 10.184ZM49.0168 8.104V12.904H53.6568V14.984H49.0168V23.528C49.0168 24.232 49.0274 24.8187 49.0488 25.288C49.0914 25.7573 49.1661 26.1307 49.2728 26.408C49.3794 26.6853 49.5288 26.888 49.7208 27.016C49.9128 27.1227 50.1581 27.176 50.4568 27.176C51.2674 27.1547 52.2061 26.856 53.2728 26.28L54.0408 28.232C53.3368 28.7013 52.6754 29.0107 52.0568 29.16C51.4594 29.3307 50.8621 29.416 50.2648 29.416C48.8568 29.416 47.8648 29.0213 47.2888 28.232C46.7341 27.4213 46.4568 26.088 46.4568 24.232V14.984H43.5128V12.904H46.4568V8.424L49.0168 8.104ZM65.889 21.608C65.4623 21.6293 65.057 21.6507 64.673 21.672C64.289 21.6933 63.905 21.7253 63.521 21.768C63.1583 21.7893 62.8277 21.8213 62.529 21.864C60.993 22.056 59.905 22.3973 59.265 22.888C58.625 23.3573 58.305 24.04 58.305 24.936C58.305 25.6827 58.529 26.248 58.977 26.632C59.4463 26.9947 60.0543 27.176 60.801 27.176C61.825 27.176 62.7317 27.0053 63.521 26.664C64.3317 26.3013 65.121 25.832 65.889 25.256V21.608ZM65.857 27.496C64.8543 28.072 63.9157 28.5413 63.041 28.904C62.1877 29.2453 61.2597 29.416 60.257 29.416C58.8277 29.416 57.6863 29.0747 56.833 28.392C56.001 27.688 55.585 26.536 55.585 24.936C55.585 24.104 55.7983 23.3787 56.225 22.76C56.6517 22.1413 57.2063 21.6293 57.889 21.224C58.593 20.7973 59.3823 20.4667 60.257 20.232C61.1317 19.9973 62.0277 19.848 62.945 19.784C63.329 19.7413 63.8303 19.7093 64.449 19.688C65.0677 19.6453 65.5477 19.6133 65.889 19.592C65.889 18.8453 65.8677 18.184 65.825 17.608C65.7823 17.0107 65.6543 16.5093 65.441 16.104C65.2277 15.6773 64.9077 15.3573 64.481 15.144C64.0757 14.9307 63.489 14.824 62.721 14.824C62.1023 14.824 61.505 14.8667 60.929 14.952C60.353 15.016 59.841 15.0907 59.393 15.176C58.8597 15.2827 58.369 15.4 57.921 15.528L57.409 13.32C57.9423 13.192 58.5183 13.0747 59.137 12.968C59.6703 12.8613 60.289 12.776 60.993 12.712C61.697 12.6267 62.4543 12.584 63.265 12.584C64.353 12.584 65.2277 12.744 65.889 13.064C66.5717 13.384 67.0943 13.8213 67.457 14.376C67.841 14.9093 68.097 15.528 68.225 16.232C68.3743 16.9147 68.449 17.64 68.449 18.408V26.088C68.449 26.3867 68.449 26.7067 68.449 27.048C68.4703 27.368 68.4917 27.688 68.513 28.008C68.5557 28.328 68.5983 28.6587 68.641 29L66.177 29.256L65.857 27.496ZM70.724 12.904H73.444L76.452 20.168C76.7507 20.872 77.0173 21.576 77.252 22.28C77.508 22.984 77.732 23.6133 77.924 24.168C78.1587 24.8293 78.3613 25.4693 78.532 26.088H78.564C78.756 25.4693 78.9693 24.8293 79.204 24.168C79.396 23.6133 79.62 22.984 79.876 22.28C80.132 21.576 80.3987 20.872 80.676 20.168L83.46 12.904H86.148L78.532 32.104C78.2333 32.8933 77.8387 33.576 77.348 34.152C76.8787 34.728 76.42 35.208 75.972 35.592C75.4387 36.04 74.884 36.424 74.308 36.744L73.06 34.536C73.508 34.3227 73.924 34.056 74.308 33.736C74.6493 33.4587 74.9907 33.1067 75.332 32.68C75.6733 32.2747 75.9507 31.784 76.164 31.208L77.156 28.584L70.724 12.904Z" fill="#B6A0F2"/>
</svg>
